<svg xmlns="http://www.w3.org/2000/svg" id="uuid-a0f75757-4c79-482c-bbbd-2b7953e60d2d" viewBox="0 0 1155.88 274.66"><defs><style>.uuid-35815b45-0869-41de-ab18-9624be0989b5,.uuid-dc7d8c33-65bb-4e98-83c8-7fb2e86b7802{stroke-width:0px;}.uuid-dc7d8c33-65bb-4e98-83c8-7fb2e86b7802{fill:#b9243c;}</style></defs><g id="uuid-17a03ce9-eee0-4794-bc6b-34a77a2cc728"><path class="uuid-35815b45-0869-41de-ab18-9624be0989b5" d="M129.02,0C91.68,0,58.15,16.33,35.17,42.22c18.38-15.09,41.89-24.15,67.52-24.15,58.8,0,106.47,47.67,106.47,106.47s-47.67,106.47-106.47,106.47c-28.27,0-53.96-11.02-73.03-29,22.94,29.72,58.91,48.87,99.36,48.87,69.28,0,125.44-56.16,125.44-125.44S198.3,0,129.02,0Z"></path><path class="uuid-35815b45-0869-41de-ab18-9624be0989b5" d="M88.81,30.88c-31.55,0-59.46,15.56-76.49,39.42,14.58-15.81,35.47-25.71,58.67-25.71,44.08,0,79.82,40.45,79.82,79.82,0,44.08-35.74,79.82-79.82,79.82-24.38,0-46.2-10.93-60.84-28.16,16.76,25.65,45.73,42.61,78.66,42.61,51.86,0,93.9-42.04,93.9-93.9S140.67,30.88,88.81,30.88Z"></path><path class="uuid-dc7d8c33-65bb-4e98-83c8-7fb2e86b7802" d="M81.55,178.47c-29.51,0-53.43-23.92-53.43-53.43s23.92-53.43,53.43-53.43c16.36,0,31,7.36,40.8,18.95-11.53-19.14-32.5-31.95-56.47-31.95C29.49,58.61,0,88.1,0,124.49s29.49,65.88,65.88,65.88c22.27,0,41.95-11.07,53.88-27.99-9.7,9.93-23.23,16.09-38.21,16.09Z"></path><path class="uuid-35815b45-0869-41de-ab18-9624be0989b5" d="M436.83,178.46c0,1.08-.86,2.37-2.58,3.87-15.28,12.91-34.86,20.23-55.73,20.23-41.74.86-74.61-34.88-73.75-78.56-.65-44.11,31.57-77.45,75.04-76.8,20.66,0,40.02,7.75,54.65,20.01-1.93,2.45-11.96,11.77-14.66,14.06-12.27-9.47-23.32-16.77-39.03-16.77-30.77,0-56.48,27.23-56.48,60.59-.43,31.85,24.31,59.26,55.09,59.26,20.41,0,30.56-7.4,43.25-17.73,2.62,1.81,12.28,9.72,14.2,11.83Z"></path><path class="uuid-35815b45-0869-41de-ab18-9624be0989b5" d="M446.2,199.87l64.87-149.67h19.68l63.4,149.63-23.66.1-50.37-122.69-50.87,122.54-23.06.09Z"></path><path class="uuid-35815b45-0869-41de-ab18-9624be0989b5" d="M1007.92,199.87l64.87-149.67h19.68l63.4,149.63-23.66.1-50.37-122.69-50.87,122.54-23.06.09Z"></path><path class="uuid-35815b45-0869-41de-ab18-9624be0989b5" d="M609.11,50.13l44.02,122.78,45.76-122.77h22.7l-58.79,149.81h-20.19l-57.41-149.81h23.91Z"></path><path class="uuid-35815b45-0869-41de-ab18-9624be0989b5" d="M740.46,199.88V50.14s21.65,0,21.65,0v149.74s-21.65,0-21.65,0Z"></path><path class="uuid-35815b45-0869-41de-ab18-9624be0989b5" d="M806.27,169.07c10.68,9.67,19.51,16.15,32.64,16.15s29.78-11.33,29.78-25.32-9.67-18.68-30.45-25.07c-29.68-9.13-43.58-18.74-43.58-43.91,0-27.33,22.43-44.36,51.26-44.36,18.08,0,28.6,1.01,43.69,17.16-1.96,1.49-14.66,12.07-16.38,14.08-11.4-8.39-15.21-12.95-28.77-12.95-16.35,0-28.26,10.11-28.26,23.89s11.9,21,35.18,27.47c25.27,7.03,39.01,18.22,39.01,42.1s-19.05,44.27-51.32,45.17c-23.93.67-35.58-6.14-50.05-19.77,3.43-3.03,14.13-11.44,17.25-14.64Z"></path><rect class="uuid-35815b45-0869-41de-ab18-9624be0989b5" x="953.59" y="50.14" width="20.02" height="149.74"></rect><rect class="uuid-35815b45-0869-41de-ab18-9624be0989b5" x="954.54" y=".4" width="18.07" height="117.55" transform="translate(1022.75 -904.4) rotate(90)"></rect><path class="uuid-dc7d8c33-65bb-4e98-83c8-7fb2e86b7802" d="M321.18,241.15v33.13h-4.17v-33.13h-12.07v-3.88h28.2v3.88h-11.96Z"></path><path class="uuid-dc7d8c33-65bb-4e98-83c8-7fb2e86b7802" d="M383.79,240.8v12.61h18.79v3.52h-18.79v13.83h19.6v3.52h-23.78v-37.01h23.78v3.52h-19.6Z"></path><path class="uuid-dc7d8c33-65bb-4e98-83c8-7fb2e86b7802" d="M477.28,261.92h4.15v1.41c0,5.04-.86,8.19-2.58,9.45-1.72,1.26-6.04,1.88-12.96,1.88-6.2,0-10.14-1.11-11.82-3.32s-2.52-7.42-2.52-15.63c0-6.42.19-10.45.57-12.11.38-1.65,1.46-3.13,3.25-4.43,2.1-1.52,6.62-2.28,13.58-2.28,4.72,0,7.89.73,9.53,2.2,1.64,1.46,2.45,4.29,2.45,8.49l.03,1h-4.15l-.03-1.14c0-2.98-.48-4.9-1.45-5.75-.97-.85-3.15-1.27-6.55-1.27-5.96,0-9.61.5-10.93,1.49-1.32.99-1.98,3.75-1.98,8.27,0,10.39.44,16.49,1.33,18.27.88,1.79,3.91,2.68,9.08,2.68s7.98-.39,9.21-1.17c1.22-.78,1.83-2.73,1.83-5.86l-.05-2.2Z"></path><path class="uuid-dc7d8c33-65bb-4e98-83c8-7fb2e86b7802" d="M560.39,237.28v37.01h-4.17v-17.16h-21.64v17.16h-4.18v-37.01h4.18v16.32h21.64v-16.32h4.17Z"></path><path class="uuid-dc7d8c33-65bb-4e98-83c8-7fb2e86b7802" d="M643.28,237.28v37.01h-6.86l-15.51-25.19-2.52-4.15-1.25-2.06-1.25-2.06h-.11l.03,1.38.03,1.41v30.66h-4.18v-37.01h6.83l13.53,22.07,3.52,5.8,1.76,2.87,1.73,2.9h.11l-.03-1.38-.03-1.41v-30.85h4.18Z"></path><path class="uuid-dc7d8c33-65bb-4e98-83c8-7fb2e86b7802" d="M708.11,236.9c7,0,11.37,1.02,13.12,3.06,1.75,2.04,2.63,7.15,2.63,15.32,0,8.8-.84,14.23-2.52,16.29-1.68,2.06-6.09,3.09-13.23,3.09s-11.51-1.02-13.22-3.06c-1.71-2.04-2.56-7.32-2.56-15.83v-2.6l.05-3.5c0-4.92,1.11-8.27,3.32-10.07s6.35-2.7,12.4-2.7ZM708.09,240.42c-5.86,0-9.28.65-10.28,1.95-.99,1.3-1.49,5.77-1.49,13.39s.5,12.12,1.49,13.42c.99,1.3,4.42,1.95,10.28,1.95s9.31-.65,10.3-1.95c.99-1.3,1.49-5.77,1.49-13.42v-2.41l-.03-3.5c0-4.08-.69-6.68-2.06-7.78-1.37-1.1-4.61-1.65-9.71-1.65Z"></path><path class="uuid-dc7d8c33-65bb-4e98-83c8-7fb2e86b7802" d="M777.07,237.28v33.13h19.03v3.88h-23.21v-37.01h4.18Z"></path><path class="uuid-dc7d8c33-65bb-4e98-83c8-7fb2e86b7802" d="M857.6,236.9c7,0,11.37,1.02,13.12,3.06,1.75,2.04,2.63,7.15,2.63,15.32,0,8.8-.84,14.23-2.52,16.29-1.68,2.06-6.09,3.09-13.23,3.09s-11.51-1.02-13.22-3.06c-1.71-2.04-2.56-7.32-2.56-15.83v-2.6l.05-3.5c0-4.92,1.11-8.27,3.32-10.07s6.35-2.7,12.4-2.7ZM857.57,240.42c-5.86,0-9.28.65-10.28,1.95-.99,1.3-1.49,5.77-1.49,13.39s.5,12.12,1.49,13.42c.99,1.3,4.42,1.95,10.28,1.95s9.31-.65,10.3-1.95c.99-1.3,1.49-5.77,1.49-13.42v-2.41l-.03-3.5c0-4.08-.69-6.68-2.06-7.78-1.37-1.1-4.61-1.65-9.71-1.65Z"></path><path class="uuid-dc7d8c33-65bb-4e98-83c8-7fb2e86b7802" d="M935.58,255.88h15.86c.07.96.11,2.3.11,4.04,0,6.67-.82,10.8-2.45,12.38-1.64,1.58-5.91,2.37-12.81,2.37-6.53,0-10.72-.94-12.58-2.81-1.86-1.87-2.79-6.07-2.79-12.59l-.03-5.45.03-3.28c0-5.48,1.03-9.12,3.1-10.93,2.07-1.81,6.24-2.71,12.51-2.71s10.35.59,12.17,1.78c1.83,1.18,2.74,3.83,2.74,7.93v1.41h-4.09v-.92c0-3.02-.62-4.88-1.86-5.6-1.24-.71-4.47-1.07-9.69-1.07-4.83,0-7.84.57-9.06,1.72-1.21,1.15-1.82,4.02-1.82,8.61l-.05,4.91.03,5.29c0,4.66.67,7.53,2.02,8.59,1.35,1.07,4.94,1.6,10.78,1.6,4.46,0,7.23-.51,8.28-1.52,1.06-1.01,1.59-3.66,1.59-7.94,0-.34-.07-1.1-.22-2.28h-11.77v-3.52Z"></path><path class="uuid-dc7d8c33-65bb-4e98-83c8-7fb2e86b7802" d="M1005.19,237.28v37.01h-4.18v-37.01h4.18Z"></path><path class="uuid-dc7d8c33-65bb-4e98-83c8-7fb2e86b7802" d="M1059.26,240.8v12.61h18.79v3.52h-18.79v13.83h19.6v3.52h-23.78v-37.01h23.78v3.52h-19.6Z"></path><path class="uuid-dc7d8c33-65bb-4e98-83c8-7fb2e86b7802" d="M1153.86,247.31h-4.15c0-2.98-.5-4.88-1.49-5.68-.99-.8-3.33-1.21-7.02-1.21-4.37,0-7.19.38-8.46,1.15-1.27.77-1.9,2.48-1.9,5.14,0,2.98.5,4.8,1.49,5.45.99.65,3.95,1.09,8.87,1.33,5.77.25,9.43.99,10.99,2.2,1.56,1.21,2.35,3.92,2.35,8.13,0,4.56-.9,7.5-2.7,8.84-1.8,1.34-5.77,2.01-11.92,2.01-5.33,0-8.88-.67-10.64-2.02-1.76-1.35-2.64-4.06-2.64-8.15l-.03-1.65h4.15v.92c0,3.31.51,5.36,1.52,6.17,1.01.8,3.61,1.21,7.78,1.21,4.79,0,7.74-.4,8.84-1.21,1.1-.8,1.65-2.95,1.65-6.44,0-2.26-.38-3.76-1.13-4.51s-2.32-1.2-4.7-1.34l-4.34-.22-4.12-.22c-6.27-.43-9.41-3.69-9.41-9.76,0-4.21.91-7.02,2.74-8.43,1.83-1.41,5.47-2.12,10.93-2.12s9.14.66,10.82,1.97c1.68,1.31,2.52,4.13,2.52,8.45Z"></path></g></svg>